<mxfile host="app.diagrams.net" modified="2023-03-30T07:02:18.243Z" agent="Mozilla/5.0 (Macintosh; Intel Mac OS X 10_15_7) AppleWebKit/605.1.15 (KHTML, like Gecko) Version/16.0 Safari/605.1.15" etag="l4V8Impvs499Sz1YZQFY" version="21.1.1" type="device">
  <diagram name="Page-1" id="2YBvvXClWsGukQMizWep">
    <mxGraphModel dx="1306" dy="867" grid="1" gridSize="10" guides="1" tooltips="1" connect="1" arrows="1" fold="1" page="1" pageScale="1" pageWidth="850" pageHeight="1100" math="0" shadow="0">
      <root>
        <mxCell id="0" />
        <mxCell id="1" parent="0" />
        <mxCell id="aM9ryv3xv72pqoxQDRHE-1" value="DialogFlow" style="shape=umlLifeline;perimeter=lifelinePerimeter;whiteSpace=wrap;html=1;container=0;dropTarget=0;collapsible=0;recursiveResize=0;outlineConnect=0;portConstraint=eastwest;newEdgeStyle={&quot;edgeStyle&quot;:&quot;elbowEdgeStyle&quot;,&quot;elbow&quot;:&quot;vertical&quot;,&quot;curved&quot;:0,&quot;rounded&quot;:0};" parent="1" vertex="1">
          <mxGeometry x="140" y="795" width="100" height="300" as="geometry" />
        </mxCell>
        <mxCell id="aM9ryv3xv72pqoxQDRHE-2" value="" style="html=1;points=[];perimeter=orthogonalPerimeter;outlineConnect=0;targetShapes=umlLifeline;portConstraint=eastwest;newEdgeStyle={&quot;edgeStyle&quot;:&quot;elbowEdgeStyle&quot;,&quot;elbow&quot;:&quot;vertical&quot;,&quot;curved&quot;:0,&quot;rounded&quot;:0};" parent="aM9ryv3xv72pqoxQDRHE-1" vertex="1">
          <mxGeometry x="45" y="70" width="10" height="190" as="geometry" />
        </mxCell>
        <mxCell id="ICfoFFDY9wNqRnNJk4W3-127" value="" style="html=1;points=[];perimeter=orthogonalPerimeter;outlineConnect=0;targetShapes=umlLifeline;portConstraint=eastwest;newEdgeStyle={&quot;edgeStyle&quot;:&quot;elbowEdgeStyle&quot;,&quot;elbow&quot;:&quot;vertical&quot;,&quot;curved&quot;:0,&quot;rounded&quot;:0};" vertex="1" parent="aM9ryv3xv72pqoxQDRHE-1">
          <mxGeometry x="55" y="70" width="10" height="140" as="geometry" />
        </mxCell>
        <mxCell id="aM9ryv3xv72pqoxQDRHE-5" value="Query&amp;nbsp;&lt;br&gt;EndPoint" style="shape=umlLifeline;perimeter=lifelinePerimeter;whiteSpace=wrap;html=1;container=0;dropTarget=0;collapsible=0;recursiveResize=0;outlineConnect=0;portConstraint=eastwest;newEdgeStyle={&quot;edgeStyle&quot;:&quot;elbowEdgeStyle&quot;,&quot;elbow&quot;:&quot;vertical&quot;,&quot;curved&quot;:0,&quot;rounded&quot;:0};" parent="1" vertex="1">
          <mxGeometry x="280" y="795" width="100" height="300" as="geometry" />
        </mxCell>
        <mxCell id="aM9ryv3xv72pqoxQDRHE-6" value="" style="html=1;points=[];perimeter=orthogonalPerimeter;outlineConnect=0;targetShapes=umlLifeline;portConstraint=eastwest;newEdgeStyle={&quot;edgeStyle&quot;:&quot;elbowEdgeStyle&quot;,&quot;elbow&quot;:&quot;vertical&quot;,&quot;curved&quot;:0,&quot;rounded&quot;:0};" parent="aM9ryv3xv72pqoxQDRHE-5" vertex="1">
          <mxGeometry x="45" y="70" width="10" height="180" as="geometry" />
        </mxCell>
        <mxCell id="ICfoFFDY9wNqRnNJk4W3-121" value="" style="html=1;points=[];perimeter=orthogonalPerimeter;outlineConnect=0;targetShapes=umlLifeline;portConstraint=eastwest;newEdgeStyle={&quot;edgeStyle&quot;:&quot;elbowEdgeStyle&quot;,&quot;elbow&quot;:&quot;vertical&quot;,&quot;curved&quot;:0,&quot;rounded&quot;:0};" vertex="1" parent="aM9ryv3xv72pqoxQDRHE-5">
          <mxGeometry x="55" y="95" width="10" height="130" as="geometry" />
        </mxCell>
        <mxCell id="aM9ryv3xv72pqoxQDRHE-7" value="JSON" style="html=1;verticalAlign=bottom;endArrow=block;edgeStyle=elbowEdgeStyle;elbow=vertical;curved=0;rounded=0;" parent="1" source="aM9ryv3xv72pqoxQDRHE-2" target="aM9ryv3xv72pqoxQDRHE-6" edge="1">
          <mxGeometry relative="1" as="geometry">
            <mxPoint x="255" y="885" as="sourcePoint" />
            <Array as="points">
              <mxPoint x="240" y="875" />
            </Array>
          </mxGeometry>
        </mxCell>
        <mxCell id="ICfoFFDY9wNqRnNJk4W3-26" value="Data Source&lt;br&gt;Connector&amp;nbsp;" style="shape=umlLifeline;perimeter=lifelinePerimeter;whiteSpace=wrap;html=1;container=0;dropTarget=0;collapsible=0;recursiveResize=0;outlineConnect=0;portConstraint=eastwest;newEdgeStyle={&quot;edgeStyle&quot;:&quot;elbowEdgeStyle&quot;,&quot;elbow&quot;:&quot;vertical&quot;,&quot;curved&quot;:0,&quot;rounded&quot;:0};" vertex="1" parent="1">
          <mxGeometry x="84" y="66" width="100" height="300" as="geometry" />
        </mxCell>
        <mxCell id="ICfoFFDY9wNqRnNJk4W3-27" value="" style="html=1;points=[];perimeter=orthogonalPerimeter;outlineConnect=0;targetShapes=umlLifeline;portConstraint=eastwest;newEdgeStyle={&quot;edgeStyle&quot;:&quot;elbowEdgeStyle&quot;,&quot;elbow&quot;:&quot;vertical&quot;,&quot;curved&quot;:0,&quot;rounded&quot;:0};" vertex="1" parent="ICfoFFDY9wNqRnNJk4W3-26">
          <mxGeometry x="45" y="80" width="10" height="170" as="geometry" />
        </mxCell>
        <mxCell id="ICfoFFDY9wNqRnNJk4W3-28" value="Data&lt;br&gt;Controller" style="shape=umlLifeline;perimeter=lifelinePerimeter;whiteSpace=wrap;html=1;container=0;dropTarget=0;collapsible=0;recursiveResize=0;outlineConnect=0;portConstraint=eastwest;newEdgeStyle={&quot;edgeStyle&quot;:&quot;elbowEdgeStyle&quot;,&quot;elbow&quot;:&quot;vertical&quot;,&quot;curved&quot;:0,&quot;rounded&quot;:0};" vertex="1" parent="1">
          <mxGeometry x="194" y="66" width="100" height="300" as="geometry" />
        </mxCell>
        <mxCell id="ICfoFFDY9wNqRnNJk4W3-29" value="" style="html=1;points=[];perimeter=orthogonalPerimeter;outlineConnect=0;targetShapes=umlLifeline;portConstraint=eastwest;newEdgeStyle={&quot;edgeStyle&quot;:&quot;elbowEdgeStyle&quot;,&quot;elbow&quot;:&quot;vertical&quot;,&quot;curved&quot;:0,&quot;rounded&quot;:0};" vertex="1" parent="ICfoFFDY9wNqRnNJk4W3-28">
          <mxGeometry x="45" y="80" width="10" height="180" as="geometry" />
        </mxCell>
        <mxCell id="ICfoFFDY9wNqRnNJk4W3-14" value="JSON or Text" style="html=1;verticalAlign=bottom;endArrow=block;edgeStyle=elbowEdgeStyle;elbow=vertical;curved=0;rounded=0;" edge="1" parent="ICfoFFDY9wNqRnNJk4W3-28">
          <mxGeometry relative="1" as="geometry">
            <mxPoint x="-60" y="125" as="sourcePoint" />
            <Array as="points" />
            <mxPoint x="45" y="124.5" as="targetPoint" />
          </mxGeometry>
        </mxCell>
        <mxCell id="ICfoFFDY9wNqRnNJk4W3-94" value="" style="html=1;points=[];perimeter=orthogonalPerimeter;outlineConnect=0;targetShapes=umlLifeline;portConstraint=eastwest;newEdgeStyle={&quot;edgeStyle&quot;:&quot;elbowEdgeStyle&quot;,&quot;elbow&quot;:&quot;vertical&quot;,&quot;curved&quot;:0,&quot;rounded&quot;:0};" vertex="1" parent="ICfoFFDY9wNqRnNJk4W3-28">
          <mxGeometry x="55" y="97.5" width="10" height="152.5" as="geometry" />
        </mxCell>
        <mxCell id="ICfoFFDY9wNqRnNJk4W3-30" value="Data&lt;br&gt;&lt;h2 style=&quot;text-align: start; box-sizing: unset; line-height: var(--jp-content-heading-line-height); font-weight: var(--jp-content-heading-font-weight); margin: var(--jp-content-heading-margin-top) 0 var(--jp-content-heading-margin-bottom) 0; font-size: var(--jp-content-font-size4); caret-color: rgba(0, 0, 0, 0.87); color: rgba(0, 0, 0, 0.87); font-family: -apple-system, BlinkMacSystemFont, &amp;quot;Segoe UI&amp;quot;, Helvetica, Arial, sans-serif, &amp;quot;Apple Color Emoji&amp;quot;, &amp;quot;Segoe UI Emoji&amp;quot;, &amp;quot;Segoe UI Symbol&amp;quot;;&quot; id=&quot;1.2-Filtering-the-Wikipedia-pages-and-splitting-them-into-sections-by-headings&quot;&gt;Filtering&lt;/h2&gt;" style="shape=umlLifeline;perimeter=lifelinePerimeter;whiteSpace=wrap;html=1;container=0;dropTarget=0;collapsible=0;recursiveResize=0;outlineConnect=0;portConstraint=eastwest;newEdgeStyle={&quot;edgeStyle&quot;:&quot;elbowEdgeStyle&quot;,&quot;elbow&quot;:&quot;vertical&quot;,&quot;curved&quot;:0,&quot;rounded&quot;:0};" vertex="1" parent="1">
          <mxGeometry x="414" y="66" width="100" height="300" as="geometry" />
        </mxCell>
        <mxCell id="ICfoFFDY9wNqRnNJk4W3-31" value="" style="html=1;points=[];perimeter=orthogonalPerimeter;outlineConnect=0;targetShapes=umlLifeline;portConstraint=eastwest;newEdgeStyle={&quot;edgeStyle&quot;:&quot;elbowEdgeStyle&quot;,&quot;elbow&quot;:&quot;vertical&quot;,&quot;curved&quot;:0,&quot;rounded&quot;:0};" vertex="1" parent="ICfoFFDY9wNqRnNJk4W3-30">
          <mxGeometry x="45" y="80" width="10" height="170" as="geometry" />
        </mxCell>
        <mxCell id="ICfoFFDY9wNqRnNJk4W3-32" value="Data&lt;br&gt;Spliting" style="shape=umlLifeline;perimeter=lifelinePerimeter;whiteSpace=wrap;html=1;container=0;dropTarget=0;collapsible=0;recursiveResize=0;outlineConnect=0;portConstraint=eastwest;newEdgeStyle={&quot;edgeStyle&quot;:&quot;elbowEdgeStyle&quot;,&quot;elbow&quot;:&quot;vertical&quot;,&quot;curved&quot;:0,&quot;rounded&quot;:0};" vertex="1" parent="1">
          <mxGeometry x="524" y="66" width="100" height="300" as="geometry" />
        </mxCell>
        <mxCell id="ICfoFFDY9wNqRnNJk4W3-33" value="" style="html=1;points=[];perimeter=orthogonalPerimeter;outlineConnect=0;targetShapes=umlLifeline;portConstraint=eastwest;newEdgeStyle={&quot;edgeStyle&quot;:&quot;elbowEdgeStyle&quot;,&quot;elbow&quot;:&quot;vertical&quot;,&quot;curved&quot;:0,&quot;rounded&quot;:0};" vertex="1" parent="ICfoFFDY9wNqRnNJk4W3-32">
          <mxGeometry x="45" y="80" width="10" height="170" as="geometry" />
        </mxCell>
        <mxCell id="ICfoFFDY9wNqRnNJk4W3-34" value="Create&amp;nbsp;&lt;br&gt;Datasets" style="shape=umlLifeline;perimeter=lifelinePerimeter;whiteSpace=wrap;html=1;container=0;dropTarget=0;collapsible=0;recursiveResize=0;outlineConnect=0;portConstraint=eastwest;newEdgeStyle={&quot;edgeStyle&quot;:&quot;elbowEdgeStyle&quot;,&quot;elbow&quot;:&quot;vertical&quot;,&quot;curved&quot;:0,&quot;rounded&quot;:0};" vertex="1" parent="1">
          <mxGeometry x="634" y="66" width="100" height="300" as="geometry" />
        </mxCell>
        <mxCell id="ICfoFFDY9wNqRnNJk4W3-35" value="" style="html=1;points=[];perimeter=orthogonalPerimeter;outlineConnect=0;targetShapes=umlLifeline;portConstraint=eastwest;newEdgeStyle={&quot;edgeStyle&quot;:&quot;elbowEdgeStyle&quot;,&quot;elbow&quot;:&quot;vertical&quot;,&quot;curved&quot;:0,&quot;rounded&quot;:0};" vertex="1" parent="ICfoFFDY9wNqRnNJk4W3-34">
          <mxGeometry x="45" y="80" width="10" height="180" as="geometry" />
        </mxCell>
        <mxCell id="ICfoFFDY9wNqRnNJk4W3-107" value="" style="html=1;points=[];perimeter=orthogonalPerimeter;outlineConnect=0;targetShapes=umlLifeline;portConstraint=eastwest;newEdgeStyle={&quot;edgeStyle&quot;:&quot;elbowEdgeStyle&quot;,&quot;elbow&quot;:&quot;vertical&quot;,&quot;curved&quot;:0,&quot;rounded&quot;:0};" vertex="1" parent="ICfoFFDY9wNqRnNJk4W3-34">
          <mxGeometry x="55" y="160" width="10" height="90" as="geometry" />
        </mxCell>
        <mxCell id="ICfoFFDY9wNqRnNJk4W3-36" value="Output CSV&lt;br&gt;Storage" style="shape=umlLifeline;perimeter=lifelinePerimeter;whiteSpace=wrap;html=1;container=0;dropTarget=0;collapsible=0;recursiveResize=0;outlineConnect=0;portConstraint=eastwest;newEdgeStyle={&quot;edgeStyle&quot;:&quot;elbowEdgeStyle&quot;,&quot;elbow&quot;:&quot;vertical&quot;,&quot;curved&quot;:0,&quot;rounded&quot;:0};" vertex="1" parent="1">
          <mxGeometry x="744" y="66" width="100" height="300" as="geometry" />
        </mxCell>
        <mxCell id="ICfoFFDY9wNqRnNJk4W3-37" value="" style="html=1;points=[];perimeter=orthogonalPerimeter;outlineConnect=0;targetShapes=umlLifeline;portConstraint=eastwest;newEdgeStyle={&quot;edgeStyle&quot;:&quot;elbowEdgeStyle&quot;,&quot;elbow&quot;:&quot;vertical&quot;,&quot;curved&quot;:0,&quot;rounded&quot;:0};" vertex="1" parent="ICfoFFDY9wNqRnNJk4W3-36">
          <mxGeometry x="45" y="80" width="10" height="170" as="geometry" />
        </mxCell>
        <mxCell id="ICfoFFDY9wNqRnNJk4W3-39" value="Read&lt;br&gt;the files" style="shape=umlLifeline;perimeter=lifelinePerimeter;whiteSpace=wrap;html=1;container=0;dropTarget=0;collapsible=0;recursiveResize=0;outlineConnect=0;portConstraint=eastwest;newEdgeStyle={&quot;edgeStyle&quot;:&quot;elbowEdgeStyle&quot;,&quot;elbow&quot;:&quot;vertical&quot;,&quot;curved&quot;:0,&quot;rounded&quot;:0};" vertex="1" parent="1">
          <mxGeometry x="150" y="425" width="100" height="300" as="geometry" />
        </mxCell>
        <mxCell id="ICfoFFDY9wNqRnNJk4W3-40" value="" style="html=1;points=[];perimeter=orthogonalPerimeter;outlineConnect=0;targetShapes=umlLifeline;portConstraint=eastwest;newEdgeStyle={&quot;edgeStyle&quot;:&quot;elbowEdgeStyle&quot;,&quot;elbow&quot;:&quot;vertical&quot;,&quot;curved&quot;:0,&quot;rounded&quot;:0};" vertex="1" parent="ICfoFFDY9wNqRnNJk4W3-39">
          <mxGeometry x="45" y="80" width="10" height="170" as="geometry" />
        </mxCell>
        <mxCell id="ICfoFFDY9wNqRnNJk4W3-41" value="Create&lt;br&gt;Embedding" style="shape=umlLifeline;perimeter=lifelinePerimeter;whiteSpace=wrap;html=1;container=0;dropTarget=0;collapsible=0;recursiveResize=0;outlineConnect=0;portConstraint=eastwest;newEdgeStyle={&quot;edgeStyle&quot;:&quot;elbowEdgeStyle&quot;,&quot;elbow&quot;:&quot;vertical&quot;,&quot;curved&quot;:0,&quot;rounded&quot;:0};" vertex="1" parent="1">
          <mxGeometry x="290" y="425" width="100" height="300" as="geometry" />
        </mxCell>
        <mxCell id="ICfoFFDY9wNqRnNJk4W3-42" value="" style="html=1;points=[];perimeter=orthogonalPerimeter;outlineConnect=0;targetShapes=umlLifeline;portConstraint=eastwest;newEdgeStyle={&quot;edgeStyle&quot;:&quot;elbowEdgeStyle&quot;,&quot;elbow&quot;:&quot;vertical&quot;,&quot;curved&quot;:0,&quot;rounded&quot;:0};" vertex="1" parent="ICfoFFDY9wNqRnNJk4W3-41">
          <mxGeometry x="45" y="80" width="10" height="170" as="geometry" />
        </mxCell>
        <mxCell id="ICfoFFDY9wNqRnNJk4W3-43" value="" style="html=1;points=[];perimeter=orthogonalPerimeter;outlineConnect=0;targetShapes=umlLifeline;portConstraint=eastwest;newEdgeStyle={&quot;edgeStyle&quot;:&quot;elbowEdgeStyle&quot;,&quot;elbow&quot;:&quot;vertical&quot;,&quot;curved&quot;:0,&quot;rounded&quot;:0};" vertex="1" parent="ICfoFFDY9wNqRnNJk4W3-41">
          <mxGeometry x="-85" y="100" width="10" height="140" as="geometry" />
        </mxCell>
        <mxCell id="ICfoFFDY9wNqRnNJk4W3-45" value="Text" style="html=1;verticalAlign=bottom;endArrow=block;edgeStyle=elbowEdgeStyle;elbow=vertical;curved=0;rounded=0;" edge="1" parent="ICfoFFDY9wNqRnNJk4W3-41">
          <mxGeometry relative="1" as="geometry">
            <mxPoint x="-80" y="125" as="sourcePoint" />
            <Array as="points">
              <mxPoint x="-25" y="124.5" />
            </Array>
            <mxPoint x="45" y="124.5" as="targetPoint" />
          </mxGeometry>
        </mxCell>
        <mxCell id="ICfoFFDY9wNqRnNJk4W3-48" value="Search Embedding document" style="shape=umlLifeline;perimeter=lifelinePerimeter;whiteSpace=wrap;html=1;container=0;dropTarget=0;collapsible=0;recursiveResize=0;outlineConnect=0;portConstraint=eastwest;newEdgeStyle={&quot;edgeStyle&quot;:&quot;elbowEdgeStyle&quot;,&quot;elbow&quot;:&quot;vertical&quot;,&quot;curved&quot;:0,&quot;rounded&quot;:0};" vertex="1" parent="1">
          <mxGeometry x="430" y="795" width="100" height="300" as="geometry" />
        </mxCell>
        <mxCell id="ICfoFFDY9wNqRnNJk4W3-49" value="" style="html=1;points=[];perimeter=orthogonalPerimeter;outlineConnect=0;targetShapes=umlLifeline;portConstraint=eastwest;newEdgeStyle={&quot;edgeStyle&quot;:&quot;elbowEdgeStyle&quot;,&quot;elbow&quot;:&quot;vertical&quot;,&quot;curved&quot;:0,&quot;rounded&quot;:0};" vertex="1" parent="ICfoFFDY9wNqRnNJk4W3-48">
          <mxGeometry x="45" y="70" width="10" height="180" as="geometry" />
        </mxCell>
        <mxCell id="ICfoFFDY9wNqRnNJk4W3-122" value="" style="html=1;points=[];perimeter=orthogonalPerimeter;outlineConnect=0;targetShapes=umlLifeline;portConstraint=eastwest;newEdgeStyle={&quot;edgeStyle&quot;:&quot;elbowEdgeStyle&quot;,&quot;elbow&quot;:&quot;vertical&quot;,&quot;curved&quot;:0,&quot;rounded&quot;:0};" vertex="1" parent="ICfoFFDY9wNqRnNJk4W3-48">
          <mxGeometry x="55" y="87" width="10" height="130" as="geometry" />
        </mxCell>
        <mxCell id="ICfoFFDY9wNqRnNJk4W3-58" value="Azure Openai&lt;br&gt;Embedding" style="shape=umlLifeline;perimeter=lifelinePerimeter;whiteSpace=wrap;html=1;container=0;dropTarget=0;collapsible=0;recursiveResize=0;outlineConnect=0;portConstraint=eastwest;newEdgeStyle={&quot;edgeStyle&quot;:&quot;elbowEdgeStyle&quot;,&quot;elbow&quot;:&quot;vertical&quot;,&quot;curved&quot;:0,&quot;rounded&quot;:0};" vertex="1" parent="1">
          <mxGeometry x="430" y="425" width="100" height="300" as="geometry" />
        </mxCell>
        <mxCell id="ICfoFFDY9wNqRnNJk4W3-59" value="" style="html=1;points=[];perimeter=orthogonalPerimeter;outlineConnect=0;targetShapes=umlLifeline;portConstraint=eastwest;newEdgeStyle={&quot;edgeStyle&quot;:&quot;elbowEdgeStyle&quot;,&quot;elbow&quot;:&quot;vertical&quot;,&quot;curved&quot;:0,&quot;rounded&quot;:0};" vertex="1" parent="ICfoFFDY9wNqRnNJk4W3-58">
          <mxGeometry x="45" y="80" width="10" height="170" as="geometry" />
        </mxCell>
        <mxCell id="ICfoFFDY9wNqRnNJk4W3-60" value="" style="html=1;points=[];perimeter=orthogonalPerimeter;outlineConnect=0;targetShapes=umlLifeline;portConstraint=eastwest;newEdgeStyle={&quot;edgeStyle&quot;:&quot;elbowEdgeStyle&quot;,&quot;elbow&quot;:&quot;vertical&quot;,&quot;curved&quot;:0,&quot;rounded&quot;:0};" vertex="1" parent="ICfoFFDY9wNqRnNJk4W3-58">
          <mxGeometry x="-85" y="100" width="10" height="130" as="geometry" />
        </mxCell>
        <mxCell id="ICfoFFDY9wNqRnNJk4W3-62" value="Call" style="html=1;verticalAlign=bottom;endArrow=block;edgeStyle=elbowEdgeStyle;elbow=horizontal;curved=0;rounded=0;" edge="1" parent="ICfoFFDY9wNqRnNJk4W3-58">
          <mxGeometry relative="1" as="geometry">
            <mxPoint x="-70" y="123" as="sourcePoint" />
            <Array as="points">
              <mxPoint x="-70" y="128" />
            </Array>
            <mxPoint x="45" y="122.5" as="targetPoint" />
          </mxGeometry>
        </mxCell>
        <mxCell id="ICfoFFDY9wNqRnNJk4W3-64" value="return" style="html=1;verticalAlign=bottom;endArrow=open;dashed=1;endSize=8;edgeStyle=elbowEdgeStyle;elbow=vertical;curved=0;rounded=0;" edge="1" parent="ICfoFFDY9wNqRnNJk4W3-58">
          <mxGeometry relative="1" as="geometry">
            <mxPoint x="-76" y="148.5" as="targetPoint" />
            <Array as="points">
              <mxPoint x="-45" y="148.5" />
            </Array>
            <mxPoint x="43.5" y="148.5" as="sourcePoint" />
          </mxGeometry>
        </mxCell>
        <mxCell id="ICfoFFDY9wNqRnNJk4W3-65" value="Store&lt;br&gt;Embedding&lt;br&gt;CSV files" style="shape=umlLifeline;perimeter=lifelinePerimeter;whiteSpace=wrap;html=1;container=0;dropTarget=0;collapsible=0;recursiveResize=0;outlineConnect=0;portConstraint=eastwest;newEdgeStyle={&quot;edgeStyle&quot;:&quot;elbowEdgeStyle&quot;,&quot;elbow&quot;:&quot;vertical&quot;,&quot;curved&quot;:0,&quot;rounded&quot;:0};" vertex="1" parent="1">
          <mxGeometry x="570" y="425" width="100" height="300" as="geometry" />
        </mxCell>
        <mxCell id="ICfoFFDY9wNqRnNJk4W3-66" value="" style="html=1;points=[];perimeter=orthogonalPerimeter;outlineConnect=0;targetShapes=umlLifeline;portConstraint=eastwest;newEdgeStyle={&quot;edgeStyle&quot;:&quot;elbowEdgeStyle&quot;,&quot;elbow&quot;:&quot;vertical&quot;,&quot;curved&quot;:0,&quot;rounded&quot;:0};" vertex="1" parent="ICfoFFDY9wNqRnNJk4W3-65">
          <mxGeometry x="45" y="80" width="10" height="170" as="geometry" />
        </mxCell>
        <mxCell id="ICfoFFDY9wNqRnNJk4W3-67" value="" style="html=1;points=[];perimeter=orthogonalPerimeter;outlineConnect=0;targetShapes=umlLifeline;portConstraint=eastwest;newEdgeStyle={&quot;edgeStyle&quot;:&quot;elbowEdgeStyle&quot;,&quot;elbow&quot;:&quot;vertical&quot;,&quot;curved&quot;:0,&quot;rounded&quot;:0};" vertex="1" parent="ICfoFFDY9wNqRnNJk4W3-65">
          <mxGeometry x="-85" y="100" width="10" height="130" as="geometry" />
        </mxCell>
        <mxCell id="ICfoFFDY9wNqRnNJk4W3-71" value="return" style="html=1;verticalAlign=bottom;endArrow=open;dashed=1;endSize=8;edgeStyle=elbowEdgeStyle;elbow=vertical;curved=0;rounded=0;" edge="1" parent="ICfoFFDY9wNqRnNJk4W3-65">
          <mxGeometry relative="1" as="geometry">
            <mxPoint x="-220" y="205" as="targetPoint" />
            <Array as="points">
              <mxPoint x="-39" y="204.5" />
            </Array>
            <mxPoint x="49.5" y="204.5" as="sourcePoint" />
          </mxGeometry>
        </mxCell>
        <mxCell id="ICfoFFDY9wNqRnNJk4W3-72" value="Azure Openai completion" style="shape=umlLifeline;perimeter=lifelinePerimeter;whiteSpace=wrap;html=1;container=0;dropTarget=0;collapsible=0;recursiveResize=0;outlineConnect=0;portConstraint=eastwest;newEdgeStyle={&quot;edgeStyle&quot;:&quot;elbowEdgeStyle&quot;,&quot;elbow&quot;:&quot;vertical&quot;,&quot;curved&quot;:0,&quot;rounded&quot;:0};" vertex="1" parent="1">
          <mxGeometry x="570" y="795" width="100" height="300" as="geometry" />
        </mxCell>
        <mxCell id="ICfoFFDY9wNqRnNJk4W3-73" value="" style="html=1;points=[];perimeter=orthogonalPerimeter;outlineConnect=0;targetShapes=umlLifeline;portConstraint=eastwest;newEdgeStyle={&quot;edgeStyle&quot;:&quot;elbowEdgeStyle&quot;,&quot;elbow&quot;:&quot;vertical&quot;,&quot;curved&quot;:0,&quot;rounded&quot;:0};" vertex="1" parent="ICfoFFDY9wNqRnNJk4W3-72">
          <mxGeometry x="45" y="70" width="10" height="180" as="geometry" />
        </mxCell>
        <mxCell id="ICfoFFDY9wNqRnNJk4W3-74" value="Customer" style="shape=umlActor;verticalLabelPosition=bottom;verticalAlign=top;html=1;outlineConnect=0;" vertex="1" parent="1">
          <mxGeometry x="60" y="795" width="30" height="60" as="geometry" />
        </mxCell>
        <mxCell id="ICfoFFDY9wNqRnNJk4W3-78" value="" style="endArrow=classic;html=1;rounded=0;" edge="1" parent="1" source="ICfoFFDY9wNqRnNJk4W3-74">
          <mxGeometry width="50" height="50" relative="1" as="geometry">
            <mxPoint x="290" y="585" as="sourcePoint" />
            <mxPoint x="130" y="825" as="targetPoint" />
          </mxGeometry>
        </mxCell>
        <mxCell id="ICfoFFDY9wNqRnNJk4W3-79" value="" style="rounded=1;whiteSpace=wrap;html=1;" vertex="1" parent="1">
          <mxGeometry x="10" y="126" width="100" height="220" as="geometry" />
        </mxCell>
        <mxCell id="ICfoFFDY9wNqRnNJk4W3-80" value="GitHub" style="rounded=1;whiteSpace=wrap;html=1;" vertex="1" parent="1">
          <mxGeometry x="20" y="146" width="80" height="29" as="geometry" />
        </mxCell>
        <mxCell id="ICfoFFDY9wNqRnNJk4W3-83" value="WebEx" style="rounded=1;whiteSpace=wrap;html=1;" vertex="1" parent="1">
          <mxGeometry x="20" y="196" width="80" height="29" as="geometry" />
        </mxCell>
        <mxCell id="ICfoFFDY9wNqRnNJk4W3-84" value="SharePoint" style="rounded=1;whiteSpace=wrap;html=1;" vertex="1" parent="1">
          <mxGeometry x="20" y="246" width="80" height="29" as="geometry" />
        </mxCell>
        <mxCell id="ICfoFFDY9wNqRnNJk4W3-85" value="BMC KBAs" style="rounded=1;whiteSpace=wrap;html=1;" vertex="1" parent="1">
          <mxGeometry x="20" y="296" width="80" height="29" as="geometry" />
        </mxCell>
        <mxCell id="ICfoFFDY9wNqRnNJk4W3-87" value="Data&lt;br&gt;Extraction" style="shape=umlLifeline;perimeter=lifelinePerimeter;whiteSpace=wrap;html=1;container=0;dropTarget=0;collapsible=0;recursiveResize=0;outlineConnect=0;portConstraint=eastwest;newEdgeStyle={&quot;edgeStyle&quot;:&quot;elbowEdgeStyle&quot;,&quot;elbow&quot;:&quot;vertical&quot;,&quot;curved&quot;:0,&quot;rounded&quot;:0};" vertex="1" parent="1">
          <mxGeometry x="304" y="66" width="100" height="300" as="geometry" />
        </mxCell>
        <mxCell id="ICfoFFDY9wNqRnNJk4W3-88" value="" style="html=1;points=[];perimeter=orthogonalPerimeter;outlineConnect=0;targetShapes=umlLifeline;portConstraint=eastwest;newEdgeStyle={&quot;edgeStyle&quot;:&quot;elbowEdgeStyle&quot;,&quot;elbow&quot;:&quot;vertical&quot;,&quot;curved&quot;:0,&quot;rounded&quot;:0};" vertex="1" parent="ICfoFFDY9wNqRnNJk4W3-87">
          <mxGeometry x="45" y="80" width="10" height="170" as="geometry" />
        </mxCell>
        <mxCell id="ICfoFFDY9wNqRnNJk4W3-97" value="" style="endArrow=classic;html=1;rounded=0;" edge="1" parent="1">
          <mxGeometry width="50" height="50" relative="1" as="geometry">
            <mxPoint x="261" y="167" as="sourcePoint" />
            <mxPoint x="341" y="167" as="targetPoint" />
          </mxGeometry>
        </mxCell>
        <mxCell id="ICfoFFDY9wNqRnNJk4W3-47" value="return" style="html=1;verticalAlign=bottom;endArrow=open;dashed=1;endSize=8;edgeStyle=elbowEdgeStyle;elbow=vertical;curved=0;rounded=0;" edge="1" parent="1">
          <mxGeometry relative="1" as="geometry">
            <mxPoint x="261" y="183.5" as="targetPoint" />
            <Array as="points">
              <mxPoint x="292" y="183.5" />
            </Array>
            <mxPoint x="336" y="184" as="sourcePoint" />
          </mxGeometry>
        </mxCell>
        <mxCell id="ICfoFFDY9wNqRnNJk4W3-98" value="" style="endArrow=classic;html=1;rounded=0;" edge="1" parent="1">
          <mxGeometry width="50" height="50" relative="1" as="geometry">
            <mxPoint x="266" y="203.5" as="sourcePoint" />
            <mxPoint x="455.5" y="203.5" as="targetPoint" />
          </mxGeometry>
        </mxCell>
        <mxCell id="ICfoFFDY9wNqRnNJk4W3-99" value="return" style="html=1;verticalAlign=bottom;endArrow=open;dashed=1;endSize=8;edgeStyle=elbowEdgeStyle;elbow=vertical;curved=0;rounded=0;" edge="1" parent="1">
          <mxGeometry relative="1" as="geometry">
            <mxPoint x="258.5" y="224" as="targetPoint" />
            <Array as="points">
              <mxPoint x="289.5" y="224" />
            </Array>
            <mxPoint x="455.5" y="224" as="sourcePoint" />
          </mxGeometry>
        </mxCell>
        <mxCell id="ICfoFFDY9wNqRnNJk4W3-101" value="" style="endArrow=classic;html=1;rounded=0;" edge="1" parent="1">
          <mxGeometry width="50" height="50" relative="1" as="geometry">
            <mxPoint x="266" y="244" as="sourcePoint" />
            <mxPoint x="565.5" y="244" as="targetPoint" />
          </mxGeometry>
        </mxCell>
        <mxCell id="ICfoFFDY9wNqRnNJk4W3-102" value="return" style="html=1;verticalAlign=bottom;endArrow=open;dashed=1;endSize=8;edgeStyle=elbowEdgeStyle;elbow=vertical;curved=0;rounded=0;" edge="1" parent="1">
          <mxGeometry relative="1" as="geometry">
            <mxPoint x="266" y="263" as="targetPoint" />
            <Array as="points">
              <mxPoint x="297" y="263" />
            </Array>
            <mxPoint x="565.5" y="263" as="sourcePoint" />
          </mxGeometry>
        </mxCell>
        <mxCell id="ICfoFFDY9wNqRnNJk4W3-105" value="" style="endArrow=classic;html=1;rounded=0;" edge="1" parent="1">
          <mxGeometry width="50" height="50" relative="1" as="geometry">
            <mxPoint x="264" y="275" as="sourcePoint" />
            <mxPoint x="683.5" y="275" as="targetPoint" />
          </mxGeometry>
        </mxCell>
        <mxCell id="ICfoFFDY9wNqRnNJk4W3-109" value="" style="endArrow=classic;html=1;rounded=0;" edge="1" parent="1">
          <mxGeometry width="50" height="50" relative="1" as="geometry">
            <mxPoint x="701" y="281" as="sourcePoint" />
            <mxPoint x="789" y="281" as="targetPoint" />
          </mxGeometry>
        </mxCell>
        <mxCell id="ICfoFFDY9wNqRnNJk4W3-111" value="return" style="html=1;verticalAlign=bottom;endArrow=open;dashed=1;endSize=8;edgeStyle=elbowEdgeStyle;elbow=vertical;curved=0;rounded=0;" edge="1" parent="1">
          <mxGeometry relative="1" as="geometry">
            <mxPoint x="704" y="301" as="targetPoint" />
            <Array as="points" />
            <mxPoint x="779" y="301.5" as="sourcePoint" />
          </mxGeometry>
        </mxCell>
        <mxCell id="ICfoFFDY9wNqRnNJk4W3-112" value="return" style="html=1;verticalAlign=bottom;endArrow=open;dashed=1;endSize=8;edgeStyle=elbowEdgeStyle;elbow=vertical;curved=0;rounded=0;" edge="1" parent="1">
          <mxGeometry relative="1" as="geometry">
            <mxPoint x="264" y="306" as="targetPoint" />
            <Array as="points">
              <mxPoint x="425" y="306" />
            </Array>
            <mxPoint x="684" y="306" as="sourcePoint" />
          </mxGeometry>
        </mxCell>
        <mxCell id="ICfoFFDY9wNqRnNJk4W3-114" value="" style="endArrow=none;html=1;rounded=0;" edge="1" parent="1">
          <mxGeometry width="50" height="50" relative="1" as="geometry">
            <mxPoint y="358" as="sourcePoint" />
            <mxPoint x="840" y="358" as="targetPoint" />
          </mxGeometry>
        </mxCell>
        <mxCell id="ICfoFFDY9wNqRnNJk4W3-115" value="" style="endArrow=none;html=1;rounded=0;" edge="1" parent="1">
          <mxGeometry width="50" height="50" relative="1" as="geometry">
            <mxPoint y="718" as="sourcePoint" />
            <mxPoint x="840" y="720" as="targetPoint" />
          </mxGeometry>
        </mxCell>
        <mxCell id="ICfoFFDY9wNqRnNJk4W3-116" value="Store" style="html=1;verticalAlign=bottom;endArrow=block;edgeStyle=elbowEdgeStyle;elbow=vertical;curved=0;rounded=0;" edge="1" parent="1" target="ICfoFFDY9wNqRnNJk4W3-65">
          <mxGeometry relative="1" as="geometry">
            <mxPoint x="355" y="593" as="sourcePoint" />
            <Array as="points" />
            <mxPoint x="480" y="592.5" as="targetPoint" />
          </mxGeometry>
        </mxCell>
        <mxCell id="ICfoFFDY9wNqRnNJk4W3-117" value="JSON" style="html=1;verticalAlign=bottom;endArrow=block;edgeStyle=elbowEdgeStyle;elbow=vertical;curved=0;rounded=0;" edge="1" parent="1">
          <mxGeometry relative="1" as="geometry">
            <mxPoint x="500" y="560" as="sourcePoint" />
            <Array as="points">
              <mxPoint x="555" y="559.5" />
            </Array>
            <mxPoint x="625" y="559.5" as="targetPoint" />
          </mxGeometry>
        </mxCell>
        <mxCell id="ICfoFFDY9wNqRnNJk4W3-119" value="return" style="html=1;verticalAlign=bottom;endArrow=open;dashed=1;endSize=8;edgeStyle=elbowEdgeStyle;elbow=vertical;curved=0;rounded=0;" edge="1" parent="1">
          <mxGeometry relative="1" as="geometry">
            <mxPoint x="212.5" y="660.5" as="targetPoint" />
            <Array as="points">
              <mxPoint x="243.5" y="660.5" />
            </Array>
            <mxPoint x="332" y="661" as="sourcePoint" />
          </mxGeometry>
        </mxCell>
        <mxCell id="ICfoFFDY9wNqRnNJk4W3-120" value="JSON" style="html=1;verticalAlign=bottom;endArrow=block;edgeStyle=elbowEdgeStyle;elbow=vertical;curved=0;rounded=0;" edge="1" parent="1">
          <mxGeometry relative="1" as="geometry">
            <mxPoint x="350" y="895" as="sourcePoint" />
            <Array as="points">
              <mxPoint x="385" y="895" />
            </Array>
            <mxPoint x="470" y="895" as="targetPoint" />
          </mxGeometry>
        </mxCell>
        <mxCell id="ICfoFFDY9wNqRnNJk4W3-123" value="JSON" style="html=1;verticalAlign=bottom;endArrow=block;edgeStyle=elbowEdgeStyle;elbow=vertical;curved=0;rounded=0;" edge="1" parent="1">
          <mxGeometry relative="1" as="geometry">
            <mxPoint x="348" y="942" as="sourcePoint" />
            <Array as="points">
              <mxPoint x="526" y="942" />
            </Array>
            <mxPoint x="611" y="942" as="targetPoint" />
          </mxGeometry>
        </mxCell>
        <mxCell id="ICfoFFDY9wNqRnNJk4W3-124" value="return" style="html=1;verticalAlign=bottom;endArrow=open;dashed=1;endSize=8;edgeStyle=elbowEdgeStyle;elbow=vertical;curved=0;rounded=0;" edge="1" parent="1">
          <mxGeometry relative="1" as="geometry">
            <mxPoint x="349" y="916" as="targetPoint" />
            <Array as="points">
              <mxPoint x="380" y="916" />
            </Array>
            <mxPoint x="468.5" y="916" as="sourcePoint" />
          </mxGeometry>
        </mxCell>
        <mxCell id="ICfoFFDY9wNqRnNJk4W3-125" value="return" style="html=1;verticalAlign=bottom;endArrow=open;dashed=1;endSize=8;edgeStyle=elbowEdgeStyle;elbow=vertical;curved=0;rounded=0;" edge="1" parent="1">
          <mxGeometry relative="1" as="geometry">
            <mxPoint x="350" y="965" as="targetPoint" />
            <Array as="points">
              <mxPoint x="381" y="965" />
            </Array>
            <mxPoint x="610" y="965" as="sourcePoint" />
          </mxGeometry>
        </mxCell>
        <mxCell id="ICfoFFDY9wNqRnNJk4W3-126" value="return" style="html=1;verticalAlign=bottom;endArrow=open;dashed=1;endSize=8;edgeStyle=elbowEdgeStyle;elbow=vertical;curved=0;rounded=0;" edge="1" parent="1">
          <mxGeometry relative="1" as="geometry">
            <mxPoint x="201.5" y="994" as="targetPoint" />
            <Array as="points" />
            <mxPoint x="332" y="994" as="sourcePoint" />
          </mxGeometry>
        </mxCell>
        <mxCell id="ICfoFFDY9wNqRnNJk4W3-128" value="&lt;span style=&quot;font-style: normal; font-variant-caps: normal; font-weight: 400; letter-spacing: normal; text-align: start; text-indent: 0px; text-transform: none; word-spacing: 0px; -webkit-text-stroke-width: 0px; text-decoration: none; font-size: 20pt; font-family: Calibri; color: black;&quot;&gt;Client Flow&lt;/span&gt;&lt;span style=&quot;caret-color: rgb(0, 0, 0); color: rgb(0, 0, 0); font-family: -webkit-standard; font-size: medium; font-style: normal; font-variant-caps: normal; font-weight: 400; letter-spacing: normal; text-align: start; text-indent: 0px; text-transform: none; word-spacing: 0px; -webkit-text-stroke-width: 0px; text-decoration: none; float: none; display: inline !important;&quot;&gt;&lt;/span&gt;" style="text;whiteSpace=wrap;html=1;" vertex="1" parent="1">
          <mxGeometry x="355" y="735" width="140" height="50" as="geometry" />
        </mxCell>
        <mxCell id="ICfoFFDY9wNqRnNJk4W3-129" value="&lt;span style=&quot;font-style: normal; font-variant-caps: normal; font-weight: 400; letter-spacing: normal; text-align: start; text-indent: 0px; text-transform: none; word-spacing: 0px; -webkit-text-stroke-width: 0px; text-decoration: none; font-size: 20pt; font-family: Calibri; color: black;&quot;&gt;Embedding Flow&lt;/span&gt;&lt;span style=&quot;caret-color: rgb(0, 0, 0); color: rgb(0, 0, 0); font-family: -webkit-standard; font-size: medium; font-style: normal; font-variant-caps: normal; font-weight: 400; letter-spacing: normal; text-align: start; text-indent: 0px; text-transform: none; word-spacing: 0px; -webkit-text-stroke-width: 0px; text-decoration: none; float: none; display: inline !important;&quot;&gt;&lt;/span&gt;" style="text;whiteSpace=wrap;html=1;" vertex="1" parent="1">
          <mxGeometry x="340" y="375" width="210" height="50" as="geometry" />
        </mxCell>
        <mxCell id="ICfoFFDY9wNqRnNJk4W3-130" value="&lt;span style=&quot;font-style: normal; font-variant-caps: normal; font-weight: 400; letter-spacing: normal; text-align: start; text-indent: 0px; text-transform: none; word-spacing: 0px; -webkit-text-stroke-width: 0px; text-decoration: none; font-size: 20pt; font-family: Calibri; color: black;&quot;&gt;Data Collection Flow&lt;/span&gt;&lt;span style=&quot;caret-color: rgb(0, 0, 0); color: rgb(0, 0, 0); font-family: -webkit-standard; font-size: medium; font-style: normal; font-variant-caps: normal; font-weight: 400; letter-spacing: normal; text-align: start; text-indent: 0px; text-transform: none; word-spacing: 0px; -webkit-text-stroke-width: 0px; text-decoration: none; float: none; display: inline !important;&quot;&gt;&lt;/span&gt;" style="text;whiteSpace=wrap;html=1;" vertex="1" parent="1">
          <mxGeometry x="304" y="20" width="255" height="50" as="geometry" />
        </mxCell>
        <mxCell id="ICfoFFDY9wNqRnNJk4W3-131" value="" style="endArrow=classic;html=1;rounded=0;exitX=0.5;exitY=0;exitDx=0;exitDy=0;" edge="1" parent="1">
          <mxGeometry width="50" height="50" relative="1" as="geometry">
            <mxPoint x="57" y="126" as="sourcePoint" />
            <mxPoint x="82" y="85" as="targetPoint" />
            <Array as="points">
              <mxPoint x="57" y="85" />
            </Array>
          </mxGeometry>
        </mxCell>
      </root>
    </mxGraphModel>
  </diagram>
</mxfile>
